Love for All and Sharing is the first step to solving all the problems of humanity.

Website I want to share. 
               
   http://www.scenetime.com
 
 
  Credit to EVERYONE for sharing and seeding back
 especially to SCENETIME.COM where i get all my 
 downloads.


 support www.scenetime.com to grow faster.

                             
                                                            
                                                   

.                 ..................................NFO:....................................
                                                     
                                                   
                                                         
                                                          
                                                           
                                                          
                                                          
                                                          
                                                           
                                                         
                                                          
                                                        
                                                      
                                     
                                                 
                                                   
                                             
                                              
                                                     
                                                      
                                                      
                                                      
                                                    
                                                     
                                                   
                                                     
                                                     
                                                      
                                                     
                                                      
                                                    
                 ARTiCHOKE                        
                                                
                      
                                                        
                                                      
                                                      
                                               
                                          
                                                   
                                            
                                                    
                                                       
                                                        
                                                      
                                                
                                                        
                                                 
                                              
                                                  
                                                
                                                  
                                        

      
                                
      SPRiNTER proudly presents...     
                                
      
 
The.Brute.Man.1946.DVDRip.XViD-SPRiNTER 
http://www.imdb.com/title/tt0038387/

Date: 2010.08

Director : JJean Yarbrough

Genre: Horror | Thriller 

Plot: A facially deformed and mentally unhinged man wreaks his revenge on 
      those who deformed him with a series of brutal murders. 

Cast : 
 Rondo Hatton ...  Hal Moffet AKA 'The Creeper' 
 Tom Neal ...  Clifford Scott 
 Jan Wiley ...  Virginia Rogers Scott 
 Jane Adams ...  Helen Paige 
 Donald MacBride ...  Police Captain M. J. Donelly 
 Peter Whitney ...  Police Lieutenant Gates 
 Fred Coby ...  Young Hal Moffet 
 

      
                 
      Release notes     
                 
      

Hybrid Source.
	   Enjoy!


      
           
     Greetings    
           
      


NTX aAF FiCO HNR CiNEFiLE AEN HUMANiSM


      
           
      Details     
           
      

Format                           : AVI
Format/Info                      : Audio Video Interleave
File size                        : 697 MiB
Duration                         : 58mn 38s
Overall bit rate                 : 1 662 Kbps
Writing application              : Nandub v1.0rc2
Writing library                  : Nandub build 1852/release

Video
ID                               : 0
Format                           : MPEG-4 Visual
Format profile                   : AdvancedSimple@L5
Format settings, BVOP            : No
Format settings, QPel            : No
Format settings, GMC             : No warppoints
Format settings, Matrix          : Default (H.263)
Codec ID                         : XVID
Codec ID/Hint                    : XviD
Duration                         : 58mn 38s
Bit rate                         : 1 584 Kbps
Width                            : 512 pixels
Height                           : 384 pixels
Display aspect ratio             : 4:3
Frame rate                       : 23.976 fps
Resolution                       : 24 bits
Colorimetry                      : 4:2:0
Scan type                        : Progressive
Bits/(Pixel*Frame)               : 0.336
Stream size                      : 664 MiB (95%)
Writing library                  : XviD 1.2.1 (UTC 2008-12-04)

Audio
ID                               : 1
Format                           : MPEG Audio
Format version                   : Version 1
Format profile                   : Layer 3
Codec ID                         : 55
Codec ID/Hint                    : MP3
Duration                         : 58mn 38s
Bit rate mode                    : Variable
Bit rate                         : 65.6 Kbps
Minimum bit rate                 : 64.0 Kbps
Channel(s)                       : 1 channel
Sampling rate                    : 48.0 KHz
Resolution                       : 16 bits
Stream size                      : 27.5 MiB (4%)
Alignment                        : Aligned on interleaves
Interleave, duration             : 24 ms (0.58 video frame)
Interleave, preload duration     : 491 ms
Writing library                  : LAME3.98r
Encoding settings                : -m m -V 5 -q 0 -lowpass 16.5 --vbr-new -b 64